<svg width="50" height="32" viewBox="0 0 50 32" fill="none" xmlns="http://www.w3.org/2000/svg">
<g clip-path="url(#clip0_1264_7350)">
<path d="M26.8295 31.4227H44.4182C44.9769 31.4228 45.5257 31.2802 46.0095 31.0092C46.4933 30.7382 46.895 30.3485 47.1742 29.8791C47.4534 29.4098 47.6003 28.8774 47.6001 28.3355C47.5998 27.7936 47.4525 27.2614 47.1728 26.7922L35.3608 6.94689C35.0816 6.47766 34.6799 6.08799 34.1962 5.81706C33.7125 5.54614 33.1638 5.4035 32.6053 5.4035C32.0467 5.4035 31.498 5.54614 31.0143 5.81706C30.5306 6.08799 30.129 6.47766 29.8498 6.94689L26.8295 12.0246L20.9243 2.09529C20.6449 1.62609 20.2431 1.23648 19.7593 0.965601C19.2754 0.694725 18.7266 0.552124 18.168 0.552124C17.6094 0.552124 17.0606 0.694725 16.5767 0.965601C16.0929 1.23648 15.6911 1.62609 15.4117 2.09529L0.712988 26.7922C0.433357 27.2614 0.28601 27.7936 0.285767 28.3355C0.285524 28.8774 0.432393 29.4098 0.711603 29.8791C0.990813 30.3485 1.39252 30.7382 1.87631 31.0092C2.36011 31.2802 2.90894 31.4228 3.4676 31.4227H14.5083C18.8828 31.4227 22.1088 29.5589 24.3286 25.9227L29.7178 16.8696L32.6044 12.0246L41.2677 26.5778H29.7178L26.8295 31.4227ZM14.3283 26.5728L6.62332 26.5711L18.1731 7.16803L23.9361 16.8696L20.0775 23.3539C18.6034 25.7132 16.9287 26.5728 14.3283 26.5728Z" fill="#94fdfd"/>
</g>
</svg>
